# This file uses centimeters as units for non-parametric coordinates.

mtllib Shelf01.mtl
g default
v -33.363689 13.518836 -23.658497
v -33.255413 13.410558 -23.658497
v -33.255413 13.518837 -23.565788
v -33.331978 13.442271 -23.658497
v -33.317924 13.456322 -23.604971
v -33.255413 13.442271 -23.592941
v -33.331978 13.518836 -23.592941
v 28.401543 13.518837 -23.565788
v 28.401543 13.410558 -23.658497
v 28.509823 13.518836 -23.658497
v 28.401543 13.442271 -23.592941
v 28.464058 13.456322 -23.604971
v 28.478107 13.442271 -23.658497
v 28.478107 13.518836 -23.592941
v -33.363689 13.518832 -45.774490
v -33.255413 13.518833 -45.867199
v -33.255413 13.410554 -45.774490
v -33.331978 13.518832 -45.840046
v -33.317924 13.456318 -45.828018
v -33.255413 13.442267 -45.840046
v -33.331978 13.442267 -45.774490
v 28.509823 13.518832 -45.774490
v 28.401543 13.410554 -45.774490
v 28.401543 13.518833 -45.867199
v 28.478107 13.442267 -45.774490
v 28.464058 13.456318 -45.828018
v 28.401543 13.442267 -45.840046
v 28.478107 13.518832 -45.840046
v -33.363689 14.051864 -23.658497
v -33.255413 14.051864 -23.565788
v -33.255413 14.160143 -23.658497
v -33.331978 14.051864 -23.592941
v -33.317924 14.114379 -23.604971
v -33.255413 14.128428 -23.592941
v -33.331978 14.128428 -23.658497
v 28.401543 14.051864 -23.565788
v 28.509823 14.051864 -23.658497
v 28.401543 14.160143 -23.658497
v 28.478107 14.051864 -23.592941
v 28.464058 14.114379 -23.604971
v 28.478107 14.128428 -23.658497
v 28.401543 14.128428 -23.592941
v -33.363689 14.051860 -45.774490
v -33.255413 14.160139 -45.774490
v -33.255413 14.051860 -45.867199
v -33.331978 14.128425 -45.774490
v -33.317924 14.114375 -45.828018
v -33.255413 14.128425 -45.840046
v -33.331978 14.051860 -45.840046
v 28.509823 14.051860 -45.774490
v 28.401543 14.051860 -45.867199
v 28.401543 14.160139 -45.774490
v 28.478107 14.051860 -45.840046
v 28.464058 14.114375 -45.828018
v 28.401543 14.128425 -45.840046
v 28.478107 14.128425 -45.774490
v -31.286179 8.316712 -24.128990
v -31.394459 8.316712 -24.036282
v -31.317894 8.316712 -24.063435
v -31.394459 13.329820 -24.036282
v -31.286179 13.329820 -24.128992
v -31.317894 13.329820 -24.063438
v -31.394459 -0.013432 -45.776611
v -31.286179 -0.013432 -45.683903
v -31.317894 -0.013432 -45.749458
v -31.286179 13.329818 -45.683907
v -31.394459 13.329818 -45.776615
v -31.317894 13.329818 -45.749458
v -32.832813 13.329818 -45.776615
v -32.941090 13.329818 -45.683907
v -32.909374 13.329818 -45.749458
v -32.832813 8.316712 -24.036282
v -32.941090 8.316712 -24.128990
v -32.909374 8.316712 -24.063435
v -32.941090 -0.013432 -45.683903
v -32.832813 -0.013432 -45.776611
v -32.909374 -0.013432 -45.749458
v -32.941090 13.329820 -24.128992
v -32.832813 13.329820 -24.036282
v -32.909374 13.329820 -24.063438
v 28.293789 8.316712 -23.710457
v 28.185513 8.316712 -23.602179
v 28.262077 8.316712 -23.633892
v 28.185513 13.329820 -23.602180
v 28.293789 13.329820 -23.710459
v 28.262077 13.329820 -23.633896
v 28.185513 -0.013433 -45.986710
v 28.293789 -0.013433 -45.878433
v 28.262077 -0.013433 -45.954994
v 28.293789 13.329818 -45.878433
v 28.185513 13.329818 -45.986710
v 28.262077 13.329818 -45.954998
v 26.747158 13.329818 -45.986710
v 26.638878 13.329818 -45.878433
v 26.670593 13.329818 -45.954998
v 26.747158 8.316712 -23.602179
v 26.638878 8.316712 -23.710457
v 26.670593 8.316712 -23.633892
v 26.638878 -0.013433 -45.878433
v 26.747158 -0.013433 -45.986710
v 26.670593 -0.013433 -45.954994
v 26.638878 13.329820 -23.710459
v 26.747158 13.329820 -23.602180
v 26.670593 13.329820 -23.633896
vt 0.326953 0.015661
vt 0.833343 0.027628
vt 0.015589 0.007367
vt 0.993633 0.008361
vt 0.335239 0.015637
vt 0.326905 0.756568
vt 0.833343 0.306062
vt 0.833343 0.006367
vt 0.014734 0.757374
vt 0.326905 0.014826
vt 0.833341 0.157210
vt 0.014676 0.765644
vt 0.647446 0.757420
vt 0.006508 0.757414
vt 0.326962 0.006556
vt 0.335240 0.014841
vt 0.326041 0.758426
vt 0.833341 0.176480
vt 0.327074 0.758329
vt 0.327770 0.757638
vt 0.326050 0.764837
vt 0.833341 0.158206
vt 0.015491 0.765791
vt 0.646654 0.757576
vt 0.326086 0.765838
vt 0.336118 0.757613
vt 0.014734 0.015635
vt 0.993633 0.026635
vt 0.007328 0.014586
vt 0.014582 0.007330
vt 0.015612 0.756486
vt 0.335241 0.756593
vt 0.993631 0.175484
vt 0.015597 0.013778
vt 0.833343 0.025637
vt 0.646591 0.015618
vt 0.833341 0.175484
vt 0.013752 0.756570
vt 0.326854 0.757416
vt 0.993631 0.177474
vt 0.013774 0.015601
vt 0.327130 0.013918
vt 0.327799 0.014606
vt 0.993631 0.157211
vt 0.007365 0.015592
vt 0.326147 0.006409
vt 0.336094 0.014630
vt 0.326008 0.757467
vt 0.833341 0.177475
vt 0.326027 0.015716
vt 0.833341 0.156215
vt 0.007340 0.756579
vt 0.334303 0.015632
vt 0.015631 0.014737
vt 0.993633 0.025640
vt 0.646626 0.014626
vt 0.015553 0.006367
vt 0.646619 0.756592
vt 0.326902 0.765690
vt 0.335243 0.757404
vt 0.014785 0.014788
vt 0.993633 0.027629
vt 0.006514 0.014741
vt 0.647434 0.014775
vt 0.014737 0.006515
vt 0.993633 0.007367
vt 0.015538 0.758382
vt 0.327056 0.764874
vt 0.334366 0.757624
vt 0.833343 0.007363
vt 0.015569 0.757425
vt 0.326070 0.014776
vt 0.993631 0.156216
vt 0.014522 0.764829
vt 0.993633 0.306060
vt 0.007306 0.757574
vt 0.993633 0.006372
vt 0.327117 0.007371
vt 0.334384 0.014622
vt 0.327867 0.756600
vt 0.833343 0.008358
vt 0.014687 0.756541
vt 0.327889 0.015633
vt 0.993631 0.158206
vt 0.647584 0.756628
vt 0.006372 0.756615
vt 0.336173 0.015630
vt 0.325956 0.756516
vt 0.326101 0.013819
vt 0.334279 0.756602
vt 0.015527 0.764793
vt 0.326111 0.007407
vt 0.013872 0.014569
vt 0.014565 0.013876
vt 0.833343 0.026632
vt 0.006367 0.015556
vt 0.647584 0.015582
vt 0.014509 0.758283
vt 0.013842 0.757592
vt 0.336201 0.756604
vt 0.993631 0.176479
vt 0.015683 0.015687
vt 0.833341 0.158206
vt 0.993631 0.158206
vt 0.993631 0.175484
vt 0.833341 0.175484
vt 0.833343 0.027628
vt 0.993633 0.027629
vt 0.993631 0.156216
vt 0.833341 0.156215
vt 0.833343 0.008358
vt 0.993633 0.008361
vt 0.993633 0.025640
vt 0.833343 0.025637
vt 0.993633 0.306060
vt 0.833343 0.306062
vt 0.833341 0.177475
vt 0.993631 0.177474
vt 0.833343 0.026632
vt 0.993633 0.026635
vt 0.833341 0.157210
vt 0.993631 0.157211
vt 0.833341 0.176480
vt 0.993631 0.176479
vt 0.833343 0.007363
vt 0.993633 0.007367
vt 0.833343 0.006367
vt 0.993633 0.006372
vn -0.154905 -0.154905 0.975709
vn 0.154905 -0.154905 0.975709
vn 0.154905 0.154905 0.975709
vn -0.154905 0.154905 0.975709
vn -0.178318 0.961680 0.208264
vn 0.178318 0.961680 0.208264
vn 0.178318 0.961680 -0.208265
vn -0.178318 0.961680 -0.208265
vn 0.961680 -0.178318 0.208264
vn 0.961680 -0.178318 -0.208264
vn 0.961680 0.178318 -0.208264
vn 0.961680 0.178318 0.208264
vn 0.154905 -0.154905 -0.975709
vn -0.154905 -0.154905 -0.975709
vn -0.154905 0.154905 -0.975709
vn 0.154905 0.154905 -0.975709
vn -0.178318 -0.961680 0.208265
vn -0.178318 -0.961680 -0.208264
vn 0.178318 -0.961680 -0.208264
vn 0.178318 -0.961680 0.208265
vn 0.167882 0.000000 0.985807
vn 0.167882 0.000000 0.985807
vn -0.167882 0.000000 0.985807
vn -0.167882 0.000000 0.985807
vn 0.974063 -0.000000 -0.226276
vn 0.974063 -0.000000 -0.226276
vn 0.974063 0.000000 0.226276
vn 0.974063 0.000000 0.226276
vn -0.167882 -0.000000 -0.985807
vn -0.167882 -0.000000 -0.985807
vn 0.167882 -0.000000 -0.985807
vn 0.167882 -0.000000 -0.985807
vn -0.974063 -0.000000 -0.226276
vn -0.974063 -0.000000 -0.226276
vn -0.974063 0.000000 0.226276
vn -0.974063 0.000000 0.226276
vn -0.961680 -0.178318 0.208264
vn -0.692756 -0.692756 0.200448
vn -0.545223 -0.545194 0.636786
vn -0.642101 -0.159076 0.749934
vn -0.178318 -0.961680 0.208265
vn -0.159076 -0.642101 0.749934
vn -0.545223 -0.545194 0.636786
vn -0.692756 -0.692756 0.200448
vn -0.154905 -0.154905 0.975709
vn -0.642101 -0.159076 0.749934
vn -0.545223 -0.545194 0.636786
vn -0.159076 -0.642101 0.749934
vn 0.154905 -0.154905 0.975709
vn 0.159076 -0.642101 0.749934
vn 0.545202 -0.545202 0.636796
vn 0.642101 -0.159076 0.749934
vn 0.178318 -0.961680 0.208265
vn 0.692756 -0.692756 0.200448
vn 0.545202 -0.545202 0.636796
vn 0.159076 -0.642101 0.749934
vn 0.961680 -0.178318 0.208264
vn 0.642101 -0.159076 0.749934
vn 0.545202 -0.545202 0.636796
vn 0.692756 -0.692756 0.200448
vn -0.961680 -0.178318 -0.208264
vn -0.642101 -0.159076 -0.749934
vn -0.545202 -0.545202 -0.636796
vn -0.692756 -0.692756 -0.200448
vn -0.154905 -0.154905 -0.975709
vn -0.159076 -0.642101 -0.749934
vn -0.545202 -0.545202 -0.636796
vn -0.642101 -0.159076 -0.749934
vn -0.178318 -0.961680 -0.208264
vn -0.692756 -0.692756 -0.200448
vn -0.545202 -0.545202 -0.636796
vn -0.159076 -0.642101 -0.749934
vn 0.961680 -0.178318 -0.208264
vn 0.692756 -0.692756 -0.200448
vn 0.545223 -0.545194 -0.636786
vn 0.642101 -0.159076 -0.749934
vn 0.178318 -0.961680 -0.208264
vn 0.159076 -0.642101 -0.749934
vn 0.545223 -0.545194 -0.636786
vn 0.692756 -0.692756 -0.200448
vn 0.154905 -0.154905 -0.975709
vn 0.642101 -0.159076 -0.749934
vn 0.545223 -0.545194 -0.636786
vn 0.159076 -0.642101 -0.749934
vn -0.961680 0.178318 0.208264
vn -0.642101 0.159076 0.749934
vn -0.545223 0.545194 0.636786
vn -0.692756 0.692756 0.200448
vn -0.154905 0.154905 0.975709
vn -0.159076 0.642101 0.749934
vn -0.545223 0.545194 0.636786
vn -0.642101 0.159076 0.749934
vn -0.178318 0.961680 0.208264
vn -0.692756 0.692756 0.200448
vn -0.545223 0.545194 0.636786
vn -0.159076 0.642101 0.749934
vn 0.154905 0.154905 0.975709
vn 0.642101 0.159076 0.749934
vn 0.545223 0.545194 0.636786
vn 0.159079 0.642085 0.749947
vn 0.961680 0.178318 0.208264
vn 0.692756 0.692756 0.200448
vn 0.545223 0.545194 0.636786
vn 0.642101 0.159076 0.749934
vn 0.178318 0.961680 0.208264
vn 0.159079 0.642085 0.749947
vn 0.545223 0.545194 0.636786
vn 0.692756 0.692756 0.200448
vn -0.961680 0.178318 -0.208264
vn -0.692756 0.692756 -0.200448
vn -0.545223 0.545194 -0.636786
vn -0.642101 0.159076 -0.749934
vn -0.178318 0.961680 -0.208265
vn -0.159079 0.642084 -0.749948
vn -0.545223 0.545194 -0.636786
vn -0.692756 0.692756 -0.200448
vn -0.154905 0.154905 -0.975709
vn -0.642101 0.159076 -0.749934
vn -0.545223 0.545194 -0.636786
vn -0.159079 0.642084 -0.749948
vn 0.961680 0.178318 -0.208264
vn 0.642101 0.159076 -0.749934
vn 0.545223 0.545194 -0.636786
vn 0.692756 0.692756 -0.200448
vn 0.154905 0.154905 -0.975709
vn 0.159076 0.642101 -0.749934
vn 0.545223 0.545194 -0.636786
vn 0.642101 0.159076 -0.749934
vn 0.178318 0.961680 -0.208265
vn 0.692756 0.692756 -0.200448
vn 0.545223 0.545194 -0.636786
vn 0.159076 0.642101 -0.749934
vn -0.178318 -0.961680 -0.208264
vn -0.178318 -0.961680 0.208265
vn -0.692756 -0.692756 0.200448
vn -0.692756 -0.692756 -0.200448
vn -0.692756 -0.692756 -0.200448
vn -0.692756 -0.692756 0.200448
vn -0.961680 -0.178318 0.208264
vn -0.961680 -0.178318 -0.208264
vn -0.178318 -0.961680 0.208265
vn 0.178318 -0.961680 0.208265
vn 0.159076 -0.642101 0.749934
vn -0.159076 -0.642101 0.749934
vn -0.159076 -0.642101 0.749934
vn 0.159076 -0.642101 0.749934
vn 0.154905 -0.154905 0.975709
vn -0.154905 -0.154905 0.975709
vn 0.178318 -0.961680 0.208265
vn 0.178318 -0.961680 -0.208264
vn 0.692756 -0.692756 -0.200448
vn 0.692756 -0.692756 0.200448
vn 0.692756 -0.692756 0.200448
vn 0.692756 -0.692756 -0.200448
vn 0.961680 -0.178318 -0.208264
vn 0.961680 -0.178318 0.208264
vn 0.178318 -0.961680 -0.208264
vn -0.178318 -0.961680 -0.208264
vn -0.159076 -0.642101 -0.749934
vn 0.159076 -0.642101 -0.749934
vn 0.159076 -0.642101 -0.749934
vn -0.159076 -0.642101 -0.749934
vn -0.154905 -0.154905 -0.975709
vn 0.154905 -0.154905 -0.975709
vn -0.961680 0.178318 -0.208264
vn -0.961680 0.178318 0.208264
vn -0.692756 0.692756 0.200448
vn -0.692756 0.692756 -0.200448
vn -0.692756 0.692756 -0.200448
vn -0.692756 0.692756 0.200448
vn -0.178318 0.961680 0.208264
vn -0.178318 0.961680 -0.208265
vn -0.154905 0.154905 0.975709
vn 0.154905 0.154905 0.975709
vn 0.159079 0.642085 0.749947
vn -0.159076 0.642101 0.749934
vn -0.159076 0.642101 0.749934
vn 0.159079 0.642085 0.749947
vn 0.178318 0.961680 0.208264
vn -0.178318 0.961680 0.208264
vn 0.961680 0.178318 0.208264
vn 0.961680 0.178318 -0.208264
vn 0.692756 0.692756 -0.200448
vn 0.692756 0.692756 0.200448
vn 0.692756 0.692756 0.200448
vn 0.692756 0.692756 -0.200448
vn 0.178318 0.961680 -0.208265
vn 0.178318 0.961680 0.208264
vn 0.154905 0.154905 -0.975709
vn -0.154905 0.154905 -0.975709
vn -0.159079 0.642084 -0.749948
vn 0.159076 0.642101 -0.749934
vn 0.159076 0.642101 -0.749934
vn -0.159079 0.642084 -0.749948
vn -0.178318 0.961680 -0.208265
vn 0.178318 0.961680 -0.208265
vn -0.961680 -0.178318 -0.208264
vn -0.961680 0.178318 -0.208264
vn -0.642101 0.159076 -0.749934
vn -0.642101 -0.159076 -0.749934
vn -0.642101 -0.159076 -0.749934
vn -0.642101 0.159076 -0.749934
vn -0.154905 0.154905 -0.975709
vn -0.154905 -0.154905 -0.975709
vn 0.961680 0.178318 -0.208264
vn 0.961680 -0.178318 -0.208264
vn 0.642101 -0.159076 -0.749934
vn 0.642101 0.159076 -0.749934
vn 0.642101 0.159076 -0.749934
vn 0.642101 -0.159076 -0.749934
vn 0.154905 -0.154905 -0.975709
vn 0.154905 0.154905 -0.975709
vn 0.961680 -0.178318 0.208264
vn 0.961680 0.178318 0.208264
vn 0.642101 0.159076 0.749934
vn 0.642101 -0.159076 0.749934
vn 0.642101 -0.159076 0.749934
vn 0.642101 0.159076 0.749934
vn 0.154905 0.154905 0.975709
vn 0.154905 -0.154905 0.975709
vn -0.961680 0.178318 0.208264
vn -0.961680 -0.178318 0.208264
vn -0.642101 -0.159076 0.749934
vn -0.642101 0.159076 0.749934
vn -0.642101 0.159076 0.749934
vn -0.642101 -0.159076 0.749934
vn -0.154905 -0.154905 0.975709
vn -0.154905 0.154905 0.975709
vn 0.974063 -0.000000 -0.226276
vn 0.974063 -0.000000 -0.226276
vn 0.650383 -0.000000 -0.759607
vn 0.650383 -0.000000 -0.759607
vn 0.650383 -0.000000 -0.759607
vn 0.650383 -0.000000 -0.759607
vn 0.167882 -0.000000 -0.985807
vn 0.167882 -0.000000 -0.985807
vn 0.167882 0.000000 0.985807
vn 0.167882 0.000000 0.985807
vn 0.650383 0.000000 0.759607
vn 0.650383 0.000000 0.759607
vn 0.650383 0.000000 0.759607
vn 0.650383 0.000000 0.759607
vn 0.974063 0.000000 0.226276
vn 0.974063 0.000000 0.226276
vn -0.974063 0.000000 0.226276
vn -0.974063 0.000000 0.226276
vn -0.650383 0.000000 0.759607
vn -0.650383 0.000000 0.759607
vn -0.650383 0.000000 0.759607
vn -0.650383 0.000000 0.759607
vn -0.167882 0.000000 0.985807
vn -0.167882 0.000000 0.985807
vn -0.167882 -0.000000 -0.985807
vn -0.167882 -0.000000 -0.985807
vn -0.650383 -0.000000 -0.759607
vn -0.650383 -0.000000 -0.759607
vn -0.650383 -0.000000 -0.759607
vn -0.650383 -0.000000 -0.759607
vn -0.974063 -0.000000 -0.226276
vn -0.974063 -0.000000 -0.226276
vn -0.961680 -0.178318 -0.208264
vn -0.961680 -0.178318 0.208264
vn -0.961680 0.178318 0.208264
vn -0.961680 0.178318 -0.208264
vn 0.195077 0.000000 0.980788
vn 0.195077 0.000000 0.980788
vn -0.195077 0.000000 0.980788
vn -0.195077 0.000000 0.980788
vn 0.980788 -0.000000 -0.195077
vn 0.980788 -0.000000 -0.195077
vn 0.980788 0.000000 0.195077
vn 0.980788 0.000000 0.195077
vn -0.195077 -0.000000 -0.980788
vn -0.195077 -0.000000 -0.980788
vn 0.195077 -0.000000 -0.980788
vn 0.195077 -0.000000 -0.980788
vn -0.980788 -0.000000 -0.195077
vn -0.980788 -0.000000 -0.195077
vn -0.980788 0.000000 0.195077
vn -0.980788 0.000000 0.195077
vn 0.980788 -0.000000 -0.195077
vn 0.980788 -0.000000 -0.195077
vn 0.707107 -0.000000 -0.707107
vn 0.707107 -0.000000 -0.707107
vn 0.707107 -0.000000 -0.707107
vn 0.707107 -0.000000 -0.707107
vn 0.195077 -0.000000 -0.980788
vn 0.195077 -0.000000 -0.980788
vn 0.195077 0.000000 0.980788
vn 0.195077 0.000000 0.980788
vn 0.707107 0.000000 0.707107
vn 0.707107 0.000000 0.707107
vn 0.707107 0.000000 0.707107
vn 0.707107 0.000000 0.707107
vn 0.980788 0.000000 0.195077
vn 0.980788 0.000000 0.195077
vn -0.980788 0.000000 0.195077
vn -0.980788 0.000000 0.195077
vn -0.707107 0.000000 0.707107
vn -0.707107 0.000000 0.707107
vn -0.707107 0.000000 0.707107
vn -0.707107 0.000000 0.707107
vn -0.195077 0.000000 0.980788
vn -0.195077 0.000000 0.980788
vn -0.195077 -0.000000 -0.980788
vn -0.195077 -0.000000 -0.980788
vn -0.707107 -0.000000 -0.707107
vn -0.707107 -0.000000 -0.707107
vn -0.707107 -0.000000 -0.707107
vn -0.707107 -0.000000 -0.707107
vn -0.980788 -0.000000 -0.195077
vn -0.980788 -0.000000 -0.195077
s off
g Boardroom_table
usemtl Boardroom_tableSG
f 3/52/1 8/45/2 36/41/3 30/38/4
f 31/31/5 38/102/6 52/50/7 44/88/8
f 10/3/9 22/92/10 50/89/11 37/34/12
f 24/53/13 16/90/14 45/80/15 51/83/16
f 2/58/17 17/100/18 23/87/19 9/36/20
f 58/22/21 60/84/22 79/33/23 72/37/24
f 64/2/25 66/62/26 61/73/27 57/51/28
f 76/81/29 69/4/30 67/55/31 63/35/32
f 70/75/33 75/7/34 73/49/35 78/40/36
f 1/91/37 4/23/38 5/12/39 7/74/40
f 2/58/41 6/85/42 5/13/43 4/24/44
f 3/52/45 7/76/46 5/14/47 6/86/48
f 8/45/49 11/96/50 12/63/51 14/29/52
f 9/36/53 13/56/54 12/64/55 11/97/56
f 10/3/57 14/30/58 12/65/59 13/57/60
f 15/21/61 18/68/62 19/59/63 21/25/64
f 16/90/65 20/32/66 19/60/67 18/69/68
f 17/100/69 21/26/70 19/60/71 20/32/72
f 22/92/73 25/46/74 26/15/75 28/78/76
f 23/87/77 27/5/78 26/16/79 25/47/80
f 24/53/81 28/79/82 26/16/83 27/5/84
f 29/67/85 32/98/86 33/9/87 35/71/88
f 30/38/89 34/82/90 33/9/91 32/99/92
f 31/31/93 35/71/94 33/9/95 34/82/96
f 36/41/97 39/93/98 40/61/99 42/27/100
f 37/34/101 41/54/102 40/61/103 39/94/104
f 38/102/105 42/27/106 40/61/107 41/54/108
f 43/17/109 46/48/110 47/39/111 49/19/112
f 44/88/113 48/6/114 47/39/115 46/48/116
f 45/80/117 49/20/118 47/39/119 48/6/120
f 50/89/121 53/42/122 54/10/123 56/72/124
f 51/83/125 55/1/126 54/10/127 53/43/128
f 52/50/129 56/72/130 54/10/131 55/1/132
f 17/100/133 2/58/134 4/24/135 21/26/136
f 21/25/137 4/23/138 1/91/139 15/21/140
f 2/58/141 9/36/142 11/97/143 6/85/144
f 6/86/145 11/96/146 8/45/147 3/52/148
f 9/36/149 23/87/150 25/47/151 13/56/152
f 13/57/153 25/46/154 22/92/155 10/3/156
f 23/87/157 17/100/158 20/32/159 27/5/160
f 27/5/161 20/32/162 16/90/163 24/53/164
f 43/17/165 29/67/166 35/71/167 46/48/168
f 46/48/169 35/71/170 31/31/171 44/88/172
f 30/38/173 36/41/174 42/27/175 34/82/176
f 34/82/177 42/27/178 38/102/179 31/31/180
f 37/34/181 50/89/182 56/72/183 41/54/184
f 41/54/185 56/72/186 52/50/187 38/102/188
f 51/83/189 45/80/190 48/6/191 55/1/192
f 55/1/193 48/6/194 44/88/195 52/50/196
f 15/21/197 43/17/198 49/19/199 18/68/200
f 18/69/201 49/20/202 45/80/203 16/90/204
f 50/89/205 22/92/206 28/78/207 53/42/208
f 53/43/209 28/79/210 24/53/211 51/83/212
f 10/3/213 37/34/214 39/94/215 14/30/216
f 14/29/217 39/93/218 36/41/219 8/45/220
f 29/67/221 1/91/222 7/74/223 32/98/224
f 32/99/225 7/76/226 3/52/227 30/38/228
f 66/62/229 64/2/230 65/95/231 68/28/232
f 68/28/233 65/95/234 63/35/235 67/55/236
f 60/84/237 58/22/238 59/11/239 62/44/240
f 62/44/241 59/11/242 57/51/243 61/73/244
f 78/40/245 73/49/246 74/18/247 80/101/248
f 80/101/249 74/18/250 72/37/251 79/33/252
f 69/4/253 76/81/254 77/70/255 71/66/256
f 71/66/257 77/70/258 75/8/259 70/77/260
f 15/21/261 1/91/262 29/67/263 43/17/264
f 82/103/265 84/104/266 103/105/267 96/106/268
f 88/107/269 90/108/270 85/109/271 81/110/272
f 100/111/273 93/112/274 91/113/275 87/114/276
f 94/115/277 99/116/278 97/117/279 102/118/280
f 90/108/281 88/107/282 89/119/283 92/120/284
f 92/120/285 89/119/286 87/114/287 91/113/288
f 84/104/289 82/103/290 83/121/291 86/122/292
f 86/122/293 83/121/294 81/110/295 85/109/296
f 102/118/297 97/117/298 98/123/299 104/124/300
f 104/124/301 98/123/302 96/106/303 103/105/304
f 93/112/305 100/111/306 101/125/307 95/126/308
f 95/126/309 101/125/310 99/127/311 94/128/312
