# This file uses centimeters as units for non-parametric coordinates.

mtllib WhiteBoard01.mtl
g default
v -6.145439 3.373536 5.652230
v -6.125168 3.668652 5.652230
v -5.981537 5.759805 5.652230
v -5.899586 6.952938 5.652230
v -5.755954 9.044092 5.652230
v -5.735684 9.339208 5.652230
v -6.145439 3.373536 5.156825
v -6.125168 3.668652 5.156825
v -5.981537 5.759805 5.156825
v -5.899586 6.952938 5.156825
v -5.755954 9.044092 5.156825
v -5.735684 9.339208 5.156825
v -6.145439 3.373536 1.130446
v -6.125168 3.668652 1.130446
v -5.755954 9.044092 1.130446
v -5.735684 9.339208 1.130446
v -6.145439 3.373536 -1.130446
v -6.125168 3.668652 -1.130446
v -5.755954 9.044092 -1.130446
v -5.735684 9.339208 -1.130446
v -6.145439 3.373536 -5.156825
v -6.125168 3.668652 -5.156825
v -5.981537 5.759805 -5.156825
v -5.899586 6.952938 -5.156825
v -5.755954 9.044092 -5.156825
v -5.735684 9.339208 -5.156825
v -6.145439 3.373536 -5.652230
v -6.125168 3.668652 -5.652230
v -5.981537 5.759805 -5.652230
v -5.899586 6.952938 -5.652230
v -5.755954 9.044092 -5.652230
v -5.735684 9.339208 -5.652230
v -6.242545 3.676713 5.156825
v -6.098913 5.767866 5.156825
v -6.098913 5.767866 1.130446
v -6.242545 3.676713 1.130446
v -6.016963 6.961000 5.156825
v -6.016961 6.961000 1.130446
v -5.873331 9.052154 5.156825
v -5.873331 9.052154 1.130446
v -6.098913 5.767866 -1.130446
v -6.242545 3.676713 -1.130446
v -6.016961 6.961000 -1.130446
v -5.873331 9.052154 -1.130446
v -6.098913 5.767866 -5.156825
v -6.242545 3.676713 -5.156825
v -6.016963 6.961000 -5.156825
v -5.873331 9.052154 -5.156825
v -6.298485 3.384048 5.652230
v -6.278214 3.679164 5.652230
v -6.298485 3.384048 5.156825
v -6.134582 5.770317 5.652230
v -6.052631 6.963450 5.652230
v -5.909000 9.054604 5.652230
v -5.888729 9.349722 5.652230
v -5.888729 9.349722 5.156825
v -6.298485 3.384048 1.130446
v -5.888729 9.349722 1.130446
v -6.298485 3.384048 -1.130446
v -5.888729 9.349720 -1.130446
v -6.298485 3.384048 -5.156825
v -5.888729 9.349720 -5.156825
v -6.298485 3.384048 -5.652230
v -5.888729 9.349722 -5.652230
v -6.278214 3.679164 -5.652230
v -6.134582 5.770317 -5.652230
v -6.052631 6.963450 -5.652230
v -5.909000 9.054604 -5.652230
vt 0.000000 0.000000
vt 0.200000 0.000000
vt 0.400000 0.000000
vt 0.600000 0.000000
vt 0.800000 0.000000
vt 1.000000 0.000000
vt 0.000000 0.200000
vt 0.200000 0.200000
vt 0.400000 0.200000
vt 0.600000 0.200000
vt 0.800000 0.200000
vt 1.000000 0.200000
vt 0.000000 0.400000
vt 0.200000 0.400000
vt 0.400000 0.400000
vt 0.600000 0.400000
vt 0.800000 0.400000
vt 1.000000 0.400000
vt 0.000000 0.600000
vt 0.200000 0.600000
vt 0.400000 0.600000
vt 0.600000 0.600000
vt 0.800000 0.600000
vt 1.000000 0.600000
vt 0.000000 0.800000
vt 0.200000 0.800000
vt 0.400000 0.800000
vt 0.600000 0.800000
vt 0.800000 0.800000
vt 1.000000 0.800000
vt 0.000000 1.000000
vt 0.200000 1.000000
vt 0.400000 1.000000
vt 0.600000 1.000000
vt 0.800000 1.000000
vt 1.000000 1.000000
vt 0.200000 0.200000
vt 0.400000 0.200000
vt 0.200000 0.400000
vt 0.600000 0.200000
vt 0.800000 0.200000
vt 0.800000 0.400000
vt 0.200000 0.600000
vt 0.800000 0.600000
vt 0.400000 0.800000
vt 0.200000 0.800000
vt 0.600000 0.800000
vt 0.800000 0.800000
vt 0.000000 0.000000
vt 1.000000 0.000000
vt 1.000000 1.000000
vt 0.000000 1.000000
vt 0.000000 0.000000
vt 1.000000 0.000000
vt 1.000000 1.000000
vt 0.000000 1.000000
vt 0.000000 0.000000
vt 1.000000 0.000000
vt 1.000000 1.000000
vt 0.000000 1.000000
vt 0.000000 0.000000
vt 1.000000 0.000000
vt 1.000000 1.000000
vt 0.000000 1.000000
vt 0.000000 0.000000
vt 1.000000 0.000000
vt 1.000000 1.000000
vt 0.000000 1.000000
vt 0.000000 0.000000
vt 1.000000 0.000000
vt 1.000000 1.000000
vt 0.000000 1.000000
vt 0.000000 0.000000
vt 1.000000 0.000000
vt 1.000000 1.000000
vt 0.000000 1.000000
vt 0.000000 0.000000
vt 1.000000 0.000000
vt 1.000000 1.000000
vt 0.000000 1.000000
vt 0.000000 0.000000
vt 1.000000 0.000000
vt 1.000000 1.000000
vt 0.000000 1.000000
vt 0.000000 0.000000
vt 1.000000 0.000000
vt 1.000000 1.000000
vt 0.000000 1.000000
vt 0.000000 0.000000
vt 1.000000 0.000000
vt 1.000000 1.000000
vt 0.000000 1.000000
vt 0.000000 0.000000
vt 1.000000 0.000000
vt 1.000000 1.000000
vt 0.000000 1.000000
vt 0.000000 0.000000
vt 1.000000 0.000000
vt 1.000000 1.000000
vt 0.000000 1.000000
vt 0.000000 0.000000
vt 1.000000 0.000000
vt 1.000000 1.000000
vt 0.000000 1.000000
vt 0.000000 0.000000
vt 1.000000 0.000000
vt 1.000000 1.000000
vt 0.000000 1.000000
vt 0.000000 0.000000
vt 1.000000 0.000000
vt 1.000000 1.000000
vt 0.000000 1.000000
vt 0.000000 0.000000
vt 1.000000 0.000000
vt 1.000000 1.000000
vt 0.000000 1.000000
vt 0.000000 0.000000
vt 1.000000 0.000000
vt 1.000000 1.000000
vt 0.000000 1.000000
vt 0.000000 0.000000
vt 1.000000 0.000000
vt 1.000000 1.000000
vt 0.000000 1.000000
vt 0.000000 0.000000
vt 1.000000 0.000000
vt 1.000000 1.000000
vt 0.000000 1.000000
vn 0.997649 -0.068526 0.000000
vn 0.997649 -0.068526 0.000000
vn 0.997649 -0.068525 0.000000
vn 0.997649 -0.068524 0.000000
vn 0.997649 -0.068524 0.000000
vn 0.997649 -0.068524 0.000000
vn 0.997649 -0.068524 0.000000
vn 0.997649 -0.068524 0.000000
vn 0.997649 -0.068525 0.000000
vn 0.997649 -0.068524 0.000000
vn 0.997649 -0.068526 0.000000
vn 0.997649 -0.068526 0.000000
vn 0.997649 -0.068526 0.000000
vn 0.997649 -0.068526 0.000000
vn 0.997649 -0.068524 -0.000000
vn 0.997649 -0.068524 -0.000000
vn 0.997649 -0.068524 0.000000
vn 0.997649 -0.068524 0.000000
vn 0.997649 -0.068524 0.000000
vn 0.997650 -0.068524 0.000000
vn 0.997649 -0.068523 0.000000
vn 0.997649 -0.068524 0.000000
vn 0.997649 -0.068526 0.000000
vn 0.997649 -0.068526 0.000000
vn 0.997649 -0.068526 0.000000
vn 0.997649 -0.068526 0.000000
vn 0.997649 -0.068524 0.000000
vn 0.997649 -0.068524 -0.000000
vn 0.997649 -0.068524 -0.000000
vn 0.997649 -0.068523 -0.000000
vn 0.997649 -0.068526 0.000000
vn 0.997649 -0.068526 0.000000
vn 0.997649 -0.068526 0.000000
vn 0.997649 -0.068525 0.000000
vn 0.997649 -0.068524 0.000000
vn 0.997649 -0.068524 -0.000000
vn 0.997649 -0.068524 -0.000000
vn 0.997649 -0.068524 -0.000000
vn 0.997649 -0.068525 0.000000
vn 0.997649 -0.068526 0.000000
vn 0.997649 -0.068526 0.000000
vn 0.997649 -0.068524 0.000000
vn 0.997649 -0.068524 0.000000
vn 0.997649 -0.068524 0.000000
vn 0.997649 -0.068524 0.000000
vn 0.997649 -0.068524 0.000000
vn 0.997649 -0.068524 0.000000
vn 0.997649 -0.068526 0.000000
vn 0.000000 0.000000 -1.000000
vn 0.000000 0.000000 -1.000000
vn 0.000000 0.000000 -1.000000
vn 0.000000 0.000000 -1.000000
vn 0.068515 0.997650 0.000000
vn 0.068515 0.997650 0.000000
vn 0.068515 0.997650 0.000000
vn 0.068515 0.997650 0.000000
vn 0.000000 0.000000 -1.000000
vn 0.000000 0.000000 -1.000000
vn 0.000000 0.000000 -1.000000
vn 0.000000 0.000000 -1.000000
vn -0.068524 -0.997649 0.000000
vn -0.068524 -0.997649 0.000000
vn -0.068524 -0.997649 0.000000
vn -0.068524 -0.997649 0.000000
vn 0.068515 0.997650 0.000000
vn 0.068515 0.997650 0.000000
vn -0.068524 -0.997649 0.000000
vn -0.068524 -0.997649 0.000000
vn 0.000000 0.000000 1.000000
vn 0.000000 0.000000 1.000000
vn 0.000000 0.000000 1.000000
vn 0.000000 0.000000 1.000000
vn 0.068515 0.997650 0.000000
vn 0.068515 0.997650 0.000000
vn 0.000000 0.000000 1.000000
vn 0.000000 0.000000 1.000000
vn -0.068524 -0.997649 0.000000
vn -0.068524 -0.997649 0.000000
vn 0.000000 0.000000 1.000000
vn 0.000000 0.000000 1.000000
vn 0.000000 0.000000 1.000000
vn 0.000000 0.000000 1.000000
vn 0.000000 0.000000 1.000000
vn 0.000000 0.000000 1.000000
vn -0.068526 -0.997649 0.000000
vn -0.068526 -0.997649 0.000000
vn -0.068526 -0.997649 0.000000
vn -0.068526 -0.997649 0.000000
vn 0.000000 0.000000 1.000000
vn 0.000000 0.000000 1.000000
vn 0.000000 0.000000 1.000000
vn 0.000000 0.000000 1.000000
vn 0.000000 0.000000 1.000000
vn 0.000000 0.000000 1.000000
vn 0.000000 0.000000 1.000000
vn 0.000000 0.000000 1.000000
vn 0.068534 0.997649 0.000000
vn 0.068534 0.997649 0.000000
vn 0.068534 0.997649 0.000000
vn 0.068534 0.997649 0.000000
vn -0.068526 -0.997649 0.000000
vn -0.068526 -0.997649 0.000000
vn 0.068532 0.997649 -0.000000
vn 0.068532 0.997649 -0.000000
vn -0.068526 -0.997649 0.000000
vn -0.068526 -0.997649 0.000000
vn 0.068526 0.997649 -0.000000
vn 0.068526 0.997649 -0.000000
vn -0.068526 -0.997649 0.000000
vn -0.068526 -0.997649 0.000000
vn 0.068525 0.997649 0.000000
vn 0.068525 0.997649 0.000000
vn -0.068526 -0.997649 0.000000
vn -0.068526 -0.997649 0.000000
vn 0.068529 0.997649 0.000001
vn 0.068529 0.997649 0.000001
vn 0.000000 0.000000 -1.000000
vn 0.000000 0.000000 -1.000000
vn 0.000000 0.000000 -1.000000
vn 0.000000 0.000000 -1.000000
vn 0.000000 0.000000 -1.000000
vn 0.000000 0.000000 -1.000000
vn 0.000000 0.000000 -1.000000
vn 0.000000 0.000000 -1.000000
vn 0.000000 0.000000 -1.000000
vn 0.000000 0.000000 -1.000000
vn 0.000000 0.000000 -1.000000
vn 0.000000 0.000000 -1.000000
s 1
g pPlane1
usemtl initialShadingGroup
f 1/1/1 7/7/2 8/8/3 2/2/4
f 2/2/4 8/8/3 9/9/5 3/3/6
f 3/3/6 9/9/5 10/10/7 4/4/8
f 4/4/8 10/10/7 11/11/9 5/5/10
f 5/5/10 11/11/9 12/12/11 6/6/12
f 7/7/2 13/13/13 14/14/14 8/8/3
s 2
f 33/37/15 36/39/16 35/15/17 34/38/18
f 34/38/18 35/15/17 38/16/19 37/40/20
f 37/40/20 38/16/19 40/42/21 39/41/22
s 1
f 11/11/9 15/17/23 16/18/24 12/12/11
f 13/13/13 17/19/25 18/20/26 14/14/14
s 2
f 36/39/16 42/43/27 41/21/28 35/15/17
f 35/15/17 41/21/28 43/22/29 38/16/19
f 38/16/19 43/22/29 44/44/30 40/42/21
s 1
f 15/17/23 19/23/31 20/24/32 16/18/24
f 17/19/25 21/25/33 22/26/34 18/20/26
s 2
f 42/43/27 46/46/35 45/45/36 41/21/28
f 41/21/28 45/45/36 47/47/37 43/22/29
f 43/22/29 47/47/37 48/48/38 44/44/30
s 1
f 19/23/31 25/29/39 26/30/40 20/24/32
f 21/25/33 27/31/41 28/32/42 22/26/34
f 22/26/34 28/32/42 29/33/43 23/27/44
f 23/27/44 29/33/43 30/34/45 24/28/46
f 24/28/46 30/34/45 31/35/47 25/29/39
f 25/29/39 31/35/47 32/36/48 26/30/40
s 3
f 8/8/49 33/37/50 34/38/51 9/9/52
s 4
f 14/14/53 36/39/54 33/37/55 8/8/56
s 3
f 9/9/52 34/38/51 37/40/57 10/10/58
f 10/10/58 37/40/57 39/41/59 11/11/60
s 5
f 11/11/61 39/41/62 40/42/63 15/17/64
s 4
f 18/20/65 42/43/66 36/39/54 14/14/53
s 5
f 15/17/64 40/42/63 44/44/67 19/23/68
s 6
f 23/27/69 45/45/70 46/46/71 22/26/72
s 4
f 22/26/73 46/46/74 42/43/66 18/20/65
s 6
f 24/28/75 47/47/76 45/45/70 23/27/69
s 5
f 19/23/68 44/44/67 48/48/77 25/29/78
s 6
f 25/29/79 48/48/80 47/47/76 24/28/75
s 7
f 2/49/81 50/52/82 49/51/83 1/50/84
s 8
f 1/53/85 49/56/86 51/55/87 7/54/88
s 7
f 3/57/89 52/60/90 50/59/82 2/58/81
f 4/61/91 53/64/92 52/63/90 3/62/89
f 5/65/93 54/68/94 53/67/92 4/66/91
f 6/69/95 55/72/96 54/71/94 5/70/93
s 9
f 12/73/97 56/76/98 55/75/99 6/74/100
s 8
f 7/77/88 51/80/87 57/79/101 13/78/102
s 9
f 16/81/103 58/84/104 56/83/98 12/82/97
s 8
f 13/85/102 57/88/101 59/87/105 17/86/106
s 9
f 20/89/107 60/92/108 58/91/104 16/90/103
s 8
f 17/93/106 59/96/105 61/95/109 21/94/110
s 9
f 26/97/111 62/100/112 60/99/108 20/98/107
s 8
f 21/101/110 61/104/109 63/103/113 27/102/114
s 9
f 32/105/115 64/108/116 62/107/112 26/106/111
s 10
f 27/109/117 63/112/118 65/111/119 28/110/120
f 28/113/120 65/116/119 66/115/121 29/114/122
f 29/117/122 66/120/121 67/119/123 30/118/124
f 30/121/124 67/124/123 68/123/125 31/122/126
f 31/125/126 68/128/125 64/127/127 32/126/128
